<?xml version="1.0" standalone="no"?>
<!DOCTYPE svg PUBLIC "-//W3C//DTD SVG 20010904//EN"
 "http://www.w3.org/TR/2001/REC-SVG-20010904/DTD/svg10.dtd">
<svg version="1.0" xmlns="http://www.w3.org/2000/svg"
 width="1024.000000pt" height="1024.000000pt" viewBox="0 0 1024.000000 1024.000000"
 preserveAspectRatio="xMidYMid meet">
<metadata>
Created by potrace 1.11, written by Peter Selinger 2001-2013
</metadata>
<g transform="translate(0.000000,1024.000000) scale(0.100000,-0.100000)"
fill="#000000" stroke="none">
<path d="M4973 7809 c-18 -5 -42 -22 -54 -38 -25 -34 -36 -37 -211 -51 -141
-12 -165 -20 -206 -71 -13 -16 -43 -41 -68 -55 -37 -22 -52 -25 -92 -20 l-47
6 37 -22 c21 -13 38 -26 38 -30 0 -5 -17 -8 -37 -8 -57 0 -73 -16 -27 -25 l38
-7 -69 -27 c-215 -83 -402 -284 -510 -545 -110 -268 -125 -619 -40 -956 19
-74 169 -528 178 -536 1 -1 2 104 2 234 1 145 6 268 14 317 7 44 42 168 77
275 35 107 59 196 54 198 -6 2 3 22 19 45 47 69 63 105 48 110 -7 3 14 31 53
71 47 49 59 66 46 66 -77 0 109 38 264 55 364 38 456 48 470 53 8 3 -7 10 -35
17 -44 10 -47 12 -25 18 14 4 69 7 122 7 l97 0 -11 31 c-16 45 -4 45 32 -1 17
-22 36 -40 41 -40 5 0 9 15 9 33 0 28 7 39 46 66 25 18 47 31 50 28 3 -3 -2
-22 -10 -42 -24 -57 -19 -62 20 -24 36 34 37 34 30 7 -3 -14 -9 -34 -12 -45
-4 -11 10 -2 36 22 l42 40 -17 -33 c-9 -19 -15 -36 -12 -38 2 -2 27 14 56 37
l52 42 -7 -38 -7 -37 54 36 c29 19 54 34 56 32 2 -1 -4 -19 -12 -39 -8 -20
-15 -38 -15 -41 0 -3 34 10 75 29 l74 34 82 -41 c52 -26 105 -63 149 -104 59
-56 78 -84 153 -227 46 -89 90 -186 97 -216 7 -29 42 -137 77 -240 92 -265
122 -396 130 -559 3 -73 8 -131 9 -129 2 2 12 48 23 103 10 54 44 173 74 264
103 305 110 422 42 688 -20 79 -39 151 -42 160 -3 10 13 -7 36 -37 l41 -55 0
36 c0 56 -45 218 -83 301 -44 94 -92 168 -153 230 -41 43 -43 47 -16 33 16 -8
49 -37 72 -63 l43 -48 -24 44 c-32 59 -141 175 -203 217 -44 30 -47 34 -21 28
l30 -7 -20 23 c-44 51 -169 150 -233 184 -71 39 -53 39 38 0 48 -21 52 -22 30
-4 -65 51 -256 99 -344 86 l-41 -6 39 24 c37 23 37 24 15 32 -13 4 -73 8 -134
9 -106 0 -113 2 -180 37 -154 79 -318 120 -392 97z"/>
<path d="M4665 6110 c2 -33 -4 -37 -24 -17 -11 10 -12 9 -6 -2 6 -11 3 -13
-16 -7 -43 13 -162 20 -156 9 4 -6 -10 -10 -35 -10 -23 0 -44 -5 -46 -12 -2
-6 -15 -11 -28 -11 -30 0 -56 -13 -104 -50 -30 -23 -52 -30 -142 -40 l-108
-13 0 -58 c0 -54 2 -60 33 -83 25 -19 36 -40 51 -93 28 -98 75 -215 94 -237 9
-10 33 -26 52 -36 74 -37 139 -45 355 -45 l210 0 55 31 c68 38 118 107 156
212 34 97 60 126 110 124 49 -2 76 -29 98 -100 44 -140 116 -229 207 -256 62
-19 345 -22 448 -5 77 12 151 42 179 72 23 24 82 171 103 256 11 42 20 58 46
75 31 20 33 24 33 82 l0 62 -102 11 c-57 7 -108 15 -114 19 -6 4 -32 22 -59
40 -27 17 -61 32 -76 32 -15 0 -29 5 -31 11 -2 5 -20 11 -41 12 -20 1 -37 6
-37 11 0 10 -127 3 -154 -9 -14 -6 -17 -5 -12 3 9 15 1 15 -27 1 -18 -9 -20
-9 -9 2 15 16 16 33 0 23 -8 -5 -9 -2 -4 11 7 18 6 18 -14 0 -18 -16 -20 -17
-14 -2 8 22 -16 23 -56 2 -38 -19 -41 -20 -51 -3 -7 10 -9 10 -9 0 0 -7 -4
-10 -10 -7 -5 3 -10 2 -10 -3 0 -16 -33 -24 -42 -10 -5 9 -8 4 -8 -14 0 -16
-4 -28 -10 -28 -5 0 -11 12 -11 28 -2 24 -2 25 -6 4 -4 -23 -5 -23 -19 -5 -14
16 -15 14 -10 -27 6 -43 5 -44 -10 -25 -16 19 -16 19 -9 -5 4 -14 11 -29 16
-34 15 -16 10 -29 -6 -16 -19 16 -19 7 0 -30 14 -26 13 -29 -8 -43 -74 -48
-251 -50 -322 -3 -24 16 -25 18 -10 46 19 37 19 46 0 30 -19 -16 -19 -3 0 30
19 33 19 49 0 24 -13 -18 -14 -16 -15 21 0 27 -3 36 -9 26 -7 -11 -10 -9 -14
10 -3 19 -5 18 -6 -8 -1 -40 -21 -44 -21 -5 0 20 -3 23 -10 12 -7 -12 -12 -11
-29 8 -12 15 -22 19 -26 12 -5 -8 -11 -8 -21 1 -8 6 -14 9 -14 6 0 -3 -16 1
-35 9 -45 18 -56 18 -48 -3 6 -17 5 -17 -14 0 -19 17 -20 16 -18 -13z m108
-194 c146 -28 191 -71 190 -181 -2 -123 -78 -248 -168 -274 -61 -18 -269 -25
-376 -13 -174 21 -223 51 -256 160 -23 76 -23 197 0 239 20 38 37 48 109 67
74 20 400 21 501 2z m1222 -12 c71 -28 90 -65 89 -169 -1 -97 -31 -188 -73
-226 -39 -36 -145 -59 -297 -66 -129 -6 -269 9 -315 33 -73 37 -129 152 -129
262 0 91 20 123 95 151 91 34 147 40 370 37 181 -2 217 -5 260 -22z"/>
<path d="M4483 5780 c-33 -17 -67 -38 -75 -47 -10 -13 -5 -12 22 4 19 11 45
24 58 28 19 6 22 3 22 -25 0 -17 7 -44 15 -60 15 -29 18 -30 89 -30 84 0 103
13 113 74 5 29 9 36 22 30 59 -25 114 -44 117 -41 2 1 -36 23 -84 47 -76 39
-97 45 -162 48 -68 3 -81 0 -137 -28z"/>
<path d="M5520 5796 c-63 -25 -168 -87 -135 -80 17 4 47 15 67 25 21 11 39 19
41 19 3 0 7 -17 11 -38 9 -57 31 -72 110 -74 62 -1 70 1 87 23 10 13 19 41 19
62 0 20 3 37 8 37 4 0 30 -11 57 -25 l50 -26 -30 26 c-16 13 -46 33 -65 42
-46 23 -173 27 -220 9z"/>
<path d="M6142 4159 c-5 -13 -42 -114 -82 -224 -122 -337 -185 -448 -613
-1100 -181 -275 -330 -501 -331 -502 -3 -3 -551 834 -674 1030 -122 193 -192
339 -276 577 -42 118 -78 216 -80 217 -2 2 -72 -76 -156 -174 l-152 -178 -157
-63 c-729 -295 -1209 -512 -1497 -677 -54 -32 -101 -59 -103 -61 -5 -5 81
-124 167 -232 454 -567 1068 -994 1764 -1223 518 -171 1123 -227 1663 -153
1014 137 1911 666 2524 1488 l82 110 -53 33 c-211 133 -864 424 -1508 673
l-225 87 -137 192 c-75 107 -139 196 -142 199 -3 2 -9 -6 -14 -19z"/>
</g>
</svg>
